<?xml version="1.0" encoding="utf-8"?>
<!-- Generator: Adobe Illustrator 20.1.0, SVG Export Plug-In . SVG Version: 6.00 Build 0)  -->
<svg version="1.1" id="Capa_1" xmlns="http://www.w3.org/2000/svg" xmlns:xlink="http://www.w3.org/1999/xlink" x="0px" y="0px"
	 viewBox="0 0 283.5 70.7" style="enable-background:new 0 0 283.5 70.7;" xml:space="preserve">
<style type="text/css">
	.st0{fill:#211915;}
	.st1{fill:#9D87DF;}
</style>
<g>
	<g>
		<path class="st0" d="M8.7,14.9c0-2.6,2-4.6,4.6-4.6h12.5c10,0,16,5.9,16,14.4v0.1c0,9.7-7.5,14.7-16.9,14.7h-7v8.3
			c0,2.6-2,4.6-4.6,4.6s-4.6-2-4.6-4.6V14.9z M25.1,31.4c4.6,0,7.3-2.7,7.3-6.3v-0.1c0-4.1-2.9-6.3-7.5-6.3h-7.1v12.8H25.1z"/>
		<path class="st0" d="M60.2,52.8c-9.6,0-16.7-6.7-16.7-16.5v-0.1c0-9.1,6.5-16.6,15.8-16.6c10.7,0,15.4,8.8,15.4,15.4
			c0,2.6-1.8,4.4-4.2,4.4h-18c0.9,4.1,3.8,6.3,7.8,6.3c2.5,0,4.6-0.8,6.4-2.1c0.7-0.5,1.3-0.7,2.2-0.7c2,0,3.5,1.6,3.5,3.6
			c0,1.2-0.5,2.1-1.2,2.7C68.5,51.3,64.9,52.8,60.2,52.8z M66.1,33.6c-0.5-4.1-2.9-6.8-6.7-6.8c-3.8,0-6.2,2.7-6.9,6.8H66.1z"/>
		<path class="st0" d="M81.3,43V27.8H81c-2.1,0-3.9-1.7-3.9-3.9c0-2.1,1.7-3.9,3.9-3.9h0.3v-4c0-2.5,2-4.5,4.5-4.5
			c2.5,0,4.5,2,4.5,4.5v4h4c2.1,0,3.9,1.7,3.9,3.9c0,2.1-1.7,3.9-3.9,3.9h-4v13.7c0,2.1,0.9,3.1,2.9,3.1c0.3,0,0.9-0.1,1.1-0.1
			c2,0,3.8,1.7,3.8,3.8c0,1.6-1.1,2.9-2.3,3.4c-1.7,0.7-3.2,0.9-5.2,0.9C85.1,52.6,81.3,50.4,81.3,43z"/>
		<path class="st0" d="M103.7,49c-1-0.6-1.7-1.7-1.7-3.1c0-2,1.6-3.6,3.6-3.6c0.7,0,1.3,0.2,1.8,0.5c3,1.9,6.1,2.9,8.6,2.9
			c2.6,0,3.8-1,3.8-2.4v-0.1c0-2-3.1-2.6-6.6-3.7c-4.5-1.3-9.5-3.4-9.5-9.6v-0.1c0-6.5,5.3-10.1,11.7-10.1c3.3,0,6.8,0.9,9.9,2.4
			c1.3,0.7,2.1,1.8,2.1,3.4c0,2-1.6,3.6-3.6,3.6c-0.7,0-1.1-0.1-1.7-0.4c-2.6-1.3-5-2-6.9-2c-2.2,0-3.3,1-3.3,2.2v0.1
			c0,1.8,3,2.6,6.5,3.8c4.5,1.5,9.7,3.6,9.7,9.5v0.1c0,7.1-5.3,10.3-12.2,10.3C111.9,52.7,107.6,51.5,103.7,49z"/>
	</g>
	<g>
		<path class="st1" d="M227.6,24.3c0-2.5,2-4.5,4.5-4.5c2.5,0,4.5,2,4.5,4.5v0.4c2.2-3,5.3-5.2,10-5.2c7.5,0,14.6,5.8,14.6,16.5v0.1
			c0,10.7-7,16.5-14.6,16.5c-4.8,0-7.8-2.2-10-4.8v9.5c0,2.5-2,4.5-4.5,4.5c-2.5,0-4.5-2-4.5-4.5V24.3z M252.1,36.2V36
			c0-5.3-3.6-8.8-7.8-8.8c-4.2,0-7.8,3.5-7.8,8.8v0.1c0,5.3,3.5,8.8,7.8,8.8C248.5,45,252.1,41.5,252.1,36.2z"/>
		<g>
			<path class="st1" d="M270.1,47.2c-3,0-5.2,2.2-5.2,5.1v0.1c0,2.9,2.2,5.1,5.2,5.1s5.2-2.2,5.2-5.1v-0.1
				C275.3,49.4,273.1,47.2,270.1,47.2z"/>
			<path class="st1" d="M265,19.4l2.4,21.2c0.2,1.6,1.3,2.6,2.7,2.6c1.5,0,2.6-1,2.7-2.6l2.4-21.2c0-0.2,0.1-1.3,0.1-1.3
				c0-2.9-2.3-5.1-5.3-5.1c-3,0-5.2,2.2-5.3,5.1C264.8,18.1,264.9,19.2,265,19.4z"/>
		</g>
		<g>
			<path class="st1" d="M209.8,12.7c-0.2-0.1-0.5-0.3-0.7-0.5c-0.8-0.8-1.8-1.4-3.1-1.4c-2.3,0-4.1,1.9-4.1,4.1l0,19.3
				c0,10.4-7.7,18.9-17.7,20.3c1.9-1,3.2-2.9,3.2-5.2c0-3.3-2.6-5.9-5.9-5.9c-3.3,0-5.9,2.6-5.9,5.9c0,2.3,1.3,4.2,3.2,5.2
				c-10-1.3-17.7-9.9-17.7-20.3V15c0-2.3-1.9-4.1-4.1-4.1c-1.2,0-2.3,0.5-3.1,1.4c-0.3,0.1-0.5,0.3-0.7,0.4
				c-6.2,4.3-15.4,12.1-13.5,20.7c0.3,1.2,1,2.3,1.9,3.2c1.4,1.2,3.2,2,5,1.8c3.3-0.2,5.2-3.6,6.1-6.8v2.7
				c0,15.9,12.9,28.8,28.8,28.8s28.8-12.9,28.8-28.8l0-2.7c1,3.2,2.8,6.6,6.1,6.8c1.8,0.1,3.7-0.6,5-1.8c0.9-0.9,1.6-2,1.9-3.2
				C225.3,24.8,216.1,17,209.8,12.7z"/>
			<circle class="st1" cx="169.9" cy="26.8" r="5.4"/>
			<circle class="st1" cx="193" cy="26.8" r="5.4"/>
		</g>
	</g>
</g>
</svg>
